<?xml version="1.0" standalone="no"?>
<!DOCTYPE svg PUBLIC "-//W3C//DTD SVG 20010904//EN"
 "http://www.w3.org/TR/2001/REC-SVG-20010904/DTD/svg10.dtd">
<svg version="1.0" xmlns="http://www.w3.org/2000/svg"
 width="500.000000pt" height="500.000000pt" viewBox="0 0 500.000000 500.000000"
 preserveAspectRatio="xMidYMid meet">
<metadata>
Created by potrace 1.14, written by Peter Selinger 2001-2017
</metadata>
<g transform="translate(0.000000,500.000000) scale(0.100000,-0.100000)"
fill="#000000" stroke="none">
<path d="M445 4829 c-60 -23 -111 -71 -138 -129 -19 -42 -20 -64 -20 -485 l0
-440 -121 -242 c-67 -134 -120 -243 -118 -243 2 0 73 34 157 75 85 41 156 75
158 75 2 0 5 -208 5 -462 1 -255 3 -474 5 -488 12 -74 70 -166 137 -215 97
-71 49 -68 920 -69 l785 -1 2 -75 c2 -41 4 -289 5 -550 l3 -475 26 -55 c42
-88 112 -153 201 -187 37 -14 101 -17 476 -18 238 -1 434 -4 437 -6 2 -3 5
-50 6 -105 1 -80 6 -110 23 -146 28 -58 65 -94 122 -119 43 -20 66 -21 436
-20 222 0 397 -4 406 -9 65 -37 586 -290 589 -286 2 2 -49 111 -114 242 l-118
239 -1 440 c-1 476 -1 484 -57 543 l-22 23 -1 562 c0 309 -4 578 -8 597 -23
98 -102 195 -195 239 l-56 26 -737 3 c-691 2 -738 4 -739 20 0 9 -1 256 -2
547 l-2 530 -33 67 c-40 82 -111 148 -190 179 -56 22 -67 22 -539 23 -265 1
-486 5 -490 10 -4 4 -9 54 -9 110 -3 156 -47 233 -158 275 -48 18 -83 19 -517
19 -427 -1 -469 -2 -514 -19z"/>
</g>
</svg>
